<svg width="195" height="20" viewBox="0 0 195 20" fill="none" xmlns="http://www.w3.org/2000/svg">
<path d="M19.4741 0.280138H33.439C33.7548 0.280138 34.0004 0.525752 34.0004 0.841541V4.28014C34.0004 4.59593 33.7548 4.84154 33.439 4.84154H24.632V7.40294H31.8951C32.2109 7.40294 32.4565 7.64856 32.4565 7.96435V11.5433C32.4565 11.8591 32.2109 12.1047 31.8951 12.1047H24.632V14.5959H33.4039C33.7197 14.5959 33.9653 14.8415 33.9653 15.1573V18.8415C33.9653 19.1573 33.7197 19.4029 33.4039 19.4029H19.5092C19.1934 19.4029 18.9478 19.1573 18.9478 18.8415V0.771364C18.9478 0.455574 19.1934 0.209961 19.5092 0.209961L19.4741 0.280138Z" fill="white"/>
<path d="M53.6496 4.94798H48.3163V18.9129C48.3163 19.2287 48.0706 19.4743 47.7549 19.4743H43.1934C42.8777 19.4743 42.632 19.2287 42.632 18.9129V4.94798H37.2987C36.9829 4.94798 36.7373 4.70237 36.7373 4.38658V0.877809C36.7373 0.56202 36.9829 0.316406 37.2987 0.316406H53.6847C54.0005 0.316406 54.2461 0.56202 54.2461 0.877809V4.38658C54.2461 4.70237 54.0005 4.94798 53.6847 4.94798H53.6496Z" fill="white"/>
<path d="M71.6497 4.52645C71.6497 4.77207 71.4391 4.98259 71.1935 4.98259H63.6848C62.4918 4.98259 62.0005 5.57908 62.0005 6.52645V13.1229C62.0005 14.0703 62.4567 14.737 63.6848 14.737H71.1935C71.4391 14.737 71.6497 14.9475 71.6497 15.1931V18.737C71.6848 18.9826 71.5093 19.1931 71.2637 19.1931C69.8953 19.2984 65.6146 19.6142 61.9655 19.6142C58.3163 19.6142 56.2812 17.1229 56.2812 14.351V5.2633C56.2812 2.49137 58.176 0.0703125 61.9655 0.0703125C65.7549 0.0703125 69.8953 0.280839 71.2637 0.386102C72.6321 0.491366 71.6848 0.59663 71.6848 0.842244V4.49137L71.6497 4.52645Z" fill="white"/>
<path d="M75.3685 0.279297H80.1755C80.4211 0.279297 80.6316 0.489822 80.6316 0.735436V7.29684H87.3334V0.735436C87.3334 0.489822 87.5439 0.279297 87.7896 0.279297H92.5966C92.8422 0.279297 93.0527 0.489822 93.0527 0.735436V19.0512C93.0527 19.2968 92.8422 19.5074 92.5966 19.5074H87.7896C87.5439 19.5074 87.3334 19.2968 87.3334 19.0512V11.9986H80.6316V19.0512C80.6316 19.2968 80.4211 19.5074 80.1755 19.5074H75.3685C75.1229 19.5074 74.9124 19.2968 74.9124 19.0512V0.735436C74.9124 0.489822 75.1229 0.279297 75.3685 0.279297Z" fill="white"/>
<path d="M6.35088 7.89494V4.84231H15.4035L16.8772 3.1581V0.631785C16.8772 0.351083 16.6316 0.105469 16.3158 0.105469H0.561403C0.245613 0.105469 0 0.351083 0 0.631785V18.9476C0 19.2283 0.245613 19.4739 0.561403 19.4739H5.82456C6.14035 19.4739 6.38596 19.2283 6.38596 18.9476V12.6669H8.63158L12.7719 7.93003H6.38596L6.35088 7.89494Z" fill="white"/>
<path d="M104.596 7.89494V4.84231H113.649L115.123 3.1581V0.631785C115.123 0.351083 114.877 0.105469 114.561 0.105469H98.807C98.4912 0.105469 98.2456 0.351083 98.2456 0.631785V18.9476C98.2456 19.2283 98.4912 19.4739 98.807 19.4739H104.07C104.386 19.4739 104.632 19.2283 104.632 18.9476V12.6669H106.877L111.018 7.93003H104.632L104.596 7.89494Z" fill="#DE5A3F"/>
<path d="M115.053 9.89501C115.053 4.35115 119.333 0.140625 125.053 0.140625C130.772 0.140625 135.053 4.35115 135.053 9.89501C135.053 15.4389 130.737 19.6494 125.053 19.6494C119.369 19.6494 115.053 15.4389 115.053 9.89501ZM130.211 9.89501C130.211 6.91255 127.965 4.66694 125.053 4.66694C122.14 4.66694 119.86 6.91255 119.86 9.89501C119.86 12.8775 122.105 15.1231 125.053 15.1231C128 15.1231 130.211 12.8775 130.211 9.89501Z" fill="#DE5A3F"/>
<path d="M137.615 9.89501C137.615 4.35115 141.895 0.140625 147.615 0.140625C153.334 0.140625 156.457 3.33361 157.264 7.78975H152.246C151.614 5.9301 149.79 4.66694 147.615 4.66694C145.439 4.66694 142.422 6.91255 142.422 9.89501C142.422 12.8775 144.667 15.1231 147.615 15.1231C150.562 15.1231 151.65 13.8599 152.246 12.0003H157.264C156.457 16.4564 152.562 19.6494 147.615 19.6494C142.667 19.6494 137.615 15.4389 137.615 9.89501Z" fill="#DE5A3F"/>
<path d="M160.351 11.9638V0.455078H165.018V11.8937C165.018 13.7533 166.421 15.1217 168.246 15.1217C170.071 15.1217 171.474 13.7533 171.474 11.8937V0.455078H176.176V11.9638C176.176 16.3498 172.772 19.6481 168.246 19.6481C163.72 19.6481 160.351 16.3498 160.351 11.9638Z" fill="#DE5A3F"/>
<path d="M179.369 13.5791H184.211C184.211 14.6317 185.334 15.4738 186.737 15.4738C188.141 15.4738 189.018 14.8071 189.018 13.965C189.018 11.4387 179.684 12.4914 179.684 6.10539C179.684 -0.280572 182.702 0.140481 186.597 0.140481C190.491 0.140481 193.579 2.63171 193.579 5.96504H188.772C188.772 5.05276 187.825 4.31592 186.562 4.31592C185.298 4.31592 184.527 4.87732 184.527 5.75452C184.527 8.35101 193.895 6.87732 193.895 13.4387C193.895 20.0001 190.737 19.6843 186.702 19.6843C182.667 19.6843 179.404 17.0177 179.404 13.6142L179.369 13.5791Z" fill="#DE5A3F"/>
</svg>
